<svg xmlns="http://www.w3.org/2000/svg" viewBox="0 0 688 686" fill="none" role="img" aria-label="flaude">
  <title>flaude</title>
  <g transform="translate(0.000000,686.000000) scale(0.100000,-0.100000)" fill="currentColor">
      <path d="M3320 6650 c-464 -53 -879 -391 -1107 -905 -128 -287 -294 -748 -523
-1450 -67 -206 -58 -329 36 -470 205 -310 723 -297 892 23 27 51 133 366 327
977 116 363 161 452 304 588 87 83 206 149 331 184 98 27 372 25 545 -5 183
-32 1055 -238 1219 -288 18 -6 18 -5 -1 22 -53 74 -283 332 -404 454 -651 654
-1151 922 -1619 870z"/>
      <path d="M1855 5566 c-668 -324 -1195 -698 -1423 -1009 -228 -310 -290 -670
-181 -1039 67 -227 234 -495 422 -681 129 -127 585 -526 897 -783 80 -66 190
-157 245 -203 202 -167 341 -212 511 -167 333 88 497 541 300 828 -53 79 -253
244 -921 762 -270 209 -385 380 -415 621 -30 239 75 525 430 1165 56 102 151
273 211 381 60 108 109 199 109 203 0 11 -14 6 -185 -78z"/>
      <path d="M3761 5294 c-350 -94 -468 -562 -216 -851 130 -148 195 -160 1120
-203 465 -22 552 -34 689 -101 243 -119 385 -335 446 -682 36 -207 83 -688
110 -1127 6 -96 13 -199 16 -228 6 -53 6 -53 46 10 167 258 386 686 508 992
207 521 249 866 144 1197 -145 459 -590 787 -1184 873 -312 45 -1361 137
-1545 135 -44 0 -104 -7 -134 -15z"/>
      <path d="M4938 3799 c-248 -36 -448 -260 -448 -500 0 -90 60 -310 312 -1154
73 -243 80 -282 81 -425 1 -186 -33 -304 -131 -446 -126 -185 -307 -296 -949
-580 -169 -75 -351 -155 -403 -179 -52 -23 -123 -55 -158 -70 -34 -15 -61 -30
-59 -31 6 -7 159 -44 322 -79 645 -139 1185 -159 1535 -58 422 122 725 481
816 968 25 134 25 395 0 550 -52 321 -374 1650 -424 1753 -62 127 -193 225
-336 251 -66 12 -76 12 -158 0z"/>
      <path d="M724 2593 c2 -16 8 -55 11 -88 62 -615 221 -1258 396 -1608 293 -588
889 -830 1525 -621 236 77 331 135 1503 925 233 157 313 252 341 409 50 276
-179 568 -461 587 -158 11 -227 -26 -744 -407 -580 -427 -605 -444 -731 -489
-303 -110 -608 -31 -876 227 -88 85 -289 309 -557 622 -287 335 -404 470 -408
470 -3 0 -2 -12 1 -27z"/>
  </g>
</svg>
