<svg xmlns="http://www.w3.org/2000/svg" viewBox="0 0 100 100" role="img" aria-labelledby="flaude-title" style="color:#ffffff">
  <title id="flaude-title">flaude</title>
  <defs>
    <path id="flaude-petal" d="M 56.65 46.76 C 56.62 45.93 57.40 45.01 57.58 44.16 C 57.77 43.32 57.78 42.47 57.75 41.68 C 57.72 40.89 57.57 40.13 57.39 39.42 C 57.21 38.70 56.95 38.03 56.68 37.40 C 56.41 36.76 56.09 36.16 55.77 35.59 C 55.44 35.01 55.08 34.48 54.72 33.94 C 54.36 33.41 53.99 32.90 53.61 32.39 C 53.22 31.87 52.83 31.37 52.42 30.85 C 52.02 30.33 51.60 29.81 51.16 29.27 C 50.72 28.74 50.26 28.19 49.77 27.61 C 49.27 27.04 48.76 26.45 48.19 25.83 C 47.62 25.22 47.02 24.57 46.35 23.93 C 45.68 23.29 44.96 22.61 44.15 21.97 C 43.34 21.34 42.69 21.00 41.49 20.11 C 40.29 19.21 37.98 18.12 36.95 16.63 C 35.92 15.14 35.28 12.96 35.32 11.15 C 35.37 9.33 36.12 7.19 37.23 5.75 C 38.33 4.31 40.20 3.03 41.94 2.51 C 43.67 1.99 45.79 2.37 47.65 2.65 C 49.51 2.94 51.34 3.58 53.09 4.23 C 54.84 4.88 56.56 5.65 58.16 6.55 C 59.76 7.44 61.30 8.48 62.70 9.61 C 64.09 10.75 65.39 12.02 66.52 13.36 C 67.66 14.70 68.67 16.16 69.52 17.65 C 70.36 19.14 71.06 20.72 71.59 22.30 C 72.12 23.88 72.49 25.51 72.70 27.11 C 72.90 28.71 72.94 30.33 72.81 31.88 C 72.69 33.42 72.40 34.96 71.98 36.39 C 71.55 37.82 70.96 39.20 70.27 40.44 C 69.58 41.68 68.74 42.84 67.83 43.84 C 66.93 44.85 65.90 45.73 64.84 46.45 C 63.78 47.18 62.68 47.74 61.50 48.18 C 60.32 48.63 58.57 49.35 57.76 49.11 C 56.96 48.87 56.68 47.58 56.65 46.76 Z"/>
  </defs>
  <g fill="currentColor">
    <use href="#flaude-petal"/>
    <use href="#flaude-petal" transform="rotate(72 50 50)"/>
    <use href="#flaude-petal" transform="rotate(144 50 50)"/>
    <use href="#flaude-petal" transform="rotate(216 50 50)"/>
    <use href="#flaude-petal" transform="rotate(288 50 50)"/>
  </g>
</svg>
